<mxfile host="app.diagrams.net" agent="Mozilla/5.0 (Windows NT 10.0; Win64; x64) AppleWebKit/537.36 (KHTML, like Gecko) Chrome/139.0.0.0 Safari/537.36" version="28.1.0">
  <diagram name="Page-1" id="FAfjDd8gnPT0EVD9iuoM">
    <mxGraphModel dx="2084" dy="1124" grid="1" gridSize="10" guides="1" tooltips="1" connect="1" arrows="1" fold="1" page="1" pageScale="1" pageWidth="850" pageHeight="1100" math="0" shadow="0">
      <root>
        <mxCell id="0" />
        <mxCell id="1" parent="0" />
        <mxCell id="czVwdub7ews4Q5AFMh-5-1" value="buku" style="rounded=0;whiteSpace=wrap;html=1;" parent="1" vertex="1">
          <mxGeometry x="621" y="291" width="120" height="60" as="geometry" />
        </mxCell>
        <mxCell id="czVwdub7ews4Q5AFMh-5-2" value="anggota" style="rounded=0;whiteSpace=wrap;html=1;" parent="1" vertex="1">
          <mxGeometry x="179" y="291" width="120" height="60" as="geometry" />
        </mxCell>
        <mxCell id="czVwdub7ews4Q5AFMh-5-3" value="meminjam" style="rhombus;whiteSpace=wrap;html=1;" parent="1" vertex="1">
          <mxGeometry x="420" y="281" width="80" height="80" as="geometry" />
        </mxCell>
        <mxCell id="czVwdub7ews4Q5AFMh-5-6" value="tahun_terbit" style="ellipse;whiteSpace=wrap;html=1;" parent="1" vertex="1">
          <mxGeometry x="586" y="403" width="70" height="40" as="geometry" />
        </mxCell>
        <mxCell id="czVwdub7ews4Q5AFMh-5-7" value="penulis" style="ellipse;whiteSpace=wrap;html=1;" parent="1" vertex="1">
          <mxGeometry x="706" y="401" width="70" height="40" as="geometry" />
        </mxCell>
        <mxCell id="czVwdub7ews4Q5AFMh-5-8" value="judul_buku" style="ellipse;whiteSpace=wrap;html=1;" parent="1" vertex="1">
          <mxGeometry x="706" y="200" width="70" height="40" as="geometry" />
        </mxCell>
        <mxCell id="czVwdub7ews4Q5AFMh-5-9" value="penerbit" style="ellipse;whiteSpace=wrap;html=1;" parent="1" vertex="1">
          <mxGeometry x="586" y="202" width="70" height="40" as="geometry" />
        </mxCell>
        <mxCell id="czVwdub7ews4Q5AFMh-5-11" value="" style="endArrow=none;html=1;rounded=0;entryX=0.5;entryY=1;entryDx=0;entryDy=0;exitX=0;exitY=0;exitDx=0;exitDy=0;" parent="1" source="czVwdub7ews4Q5AFMh-5-1" target="czVwdub7ews4Q5AFMh-5-9" edge="1">
          <mxGeometry width="50" height="50" relative="1" as="geometry">
            <mxPoint x="600" y="291" as="sourcePoint" />
            <mxPoint x="590" y="251" as="targetPoint" />
          </mxGeometry>
        </mxCell>
        <mxCell id="czVwdub7ews4Q5AFMh-5-12" value="" style="endArrow=none;html=1;rounded=0;entryX=0;entryY=1;entryDx=0;entryDy=0;exitX=0.5;exitY=0;exitDx=0;exitDy=0;" parent="1" source="czVwdub7ews4Q5AFMh-5-6" target="czVwdub7ews4Q5AFMh-5-1" edge="1">
          <mxGeometry width="50" height="50" relative="1" as="geometry">
            <mxPoint x="520" y="411" as="sourcePoint" />
            <mxPoint x="570" y="361" as="targetPoint" />
          </mxGeometry>
        </mxCell>
        <mxCell id="czVwdub7ews4Q5AFMh-5-13" value="" style="endArrow=none;html=1;rounded=0;entryX=1;entryY=1;entryDx=0;entryDy=0;" parent="1" source="czVwdub7ews4Q5AFMh-5-7" target="czVwdub7ews4Q5AFMh-5-1" edge="1">
          <mxGeometry width="50" height="50" relative="1" as="geometry">
            <mxPoint x="670" y="461" as="sourcePoint" />
            <mxPoint x="720" y="411" as="targetPoint" />
          </mxGeometry>
        </mxCell>
        <mxCell id="czVwdub7ews4Q5AFMh-5-14" value="" style="endArrow=none;html=1;rounded=0;exitX=1;exitY=0.5;exitDx=0;exitDy=0;" parent="1" source="czVwdub7ews4Q5AFMh-5-1" target="czVwdub7ews4Q5AFMh-5-78" edge="1">
          <mxGeometry width="50" height="50" relative="1" as="geometry">
            <mxPoint x="800" y="421" as="sourcePoint" />
            <mxPoint x="776" y="321" as="targetPoint" />
          </mxGeometry>
        </mxCell>
        <mxCell id="czVwdub7ews4Q5AFMh-5-19" value="" style="endArrow=none;html=1;rounded=0;entryX=0.5;entryY=1;entryDx=0;entryDy=0;exitX=1;exitY=0;exitDx=0;exitDy=0;" parent="1" source="czVwdub7ews4Q5AFMh-5-1" target="czVwdub7ews4Q5AFMh-5-8" edge="1">
          <mxGeometry width="50" height="50" relative="1" as="geometry">
            <mxPoint x="631" y="301" as="sourcePoint" />
            <mxPoint x="631" y="281" as="targetPoint" />
          </mxGeometry>
        </mxCell>
        <mxCell id="czVwdub7ews4Q5AFMh-5-20" value="kelas" style="ellipse;whiteSpace=wrap;html=1;" parent="1" vertex="1">
          <mxGeometry x="129" y="391" width="70" height="40" as="geometry" />
        </mxCell>
        <mxCell id="czVwdub7ews4Q5AFMh-5-21" value="fullname" style="ellipse;whiteSpace=wrap;html=1;" parent="1" vertex="1">
          <mxGeometry x="150" y="211" width="70" height="40" as="geometry" />
        </mxCell>
        <mxCell id="czVwdub7ews4Q5AFMh-5-22" value="no_telp" style="ellipse;whiteSpace=wrap;html=1;" parent="1" vertex="1">
          <mxGeometry x="299" y="363" width="70" height="40" as="geometry" />
        </mxCell>
        <mxCell id="czVwdub7ews4Q5AFMh-5-23" value="jurusan" style="ellipse;whiteSpace=wrap;html=1;" parent="1" vertex="1">
          <mxGeometry x="70" y="351" width="70" height="40" as="geometry" />
        </mxCell>
        <mxCell id="czVwdub7ews4Q5AFMh-5-24" value="alamat" style="ellipse;whiteSpace=wrap;html=1;" parent="1" vertex="1">
          <mxGeometry x="70" y="241" width="70" height="40" as="geometry" />
        </mxCell>
        <mxCell id="czVwdub7ews4Q5AFMh-5-28" value="" style="endArrow=none;html=1;rounded=0;exitX=1;exitY=0;exitDx=0;exitDy=0;" parent="1" source="czVwdub7ews4Q5AFMh-5-2" target="czVwdub7ews4Q5AFMh-5-82" edge="1">
          <mxGeometry width="50" height="50" relative="1" as="geometry">
            <mxPoint x="350" y="291" as="sourcePoint" />
            <mxPoint x="334" y="280" as="targetPoint" />
          </mxGeometry>
        </mxCell>
        <mxCell id="czVwdub7ews4Q5AFMh-5-30" value="" style="endArrow=none;html=1;rounded=0;entryX=0.5;entryY=1;entryDx=0;entryDy=0;exitX=0.5;exitY=0;exitDx=0;exitDy=0;" parent="1" source="czVwdub7ews4Q5AFMh-5-2" target="czVwdub7ews4Q5AFMh-5-21" edge="1">
          <mxGeometry width="50" height="50" relative="1" as="geometry">
            <mxPoint x="240" y="321" as="sourcePoint" />
            <mxPoint x="270" y="261" as="targetPoint" />
          </mxGeometry>
        </mxCell>
        <mxCell id="czVwdub7ews4Q5AFMh-5-31" value="" style="endArrow=none;html=1;rounded=0;entryX=1;entryY=1;entryDx=0;entryDy=0;" parent="1" source="czVwdub7ews4Q5AFMh-5-22" target="czVwdub7ews4Q5AFMh-5-2" edge="1">
          <mxGeometry width="50" height="50" relative="1" as="geometry">
            <mxPoint x="395" y="451" as="sourcePoint" />
            <mxPoint x="445" y="401" as="targetPoint" />
          </mxGeometry>
        </mxCell>
        <mxCell id="czVwdub7ews4Q5AFMh-5-32" value="" style="endArrow=none;html=1;rounded=0;" parent="1" source="czVwdub7ews4Q5AFMh-5-20" target="czVwdub7ews4Q5AFMh-5-2" edge="1">
          <mxGeometry width="50" height="50" relative="1" as="geometry">
            <mxPoint x="465" y="551" as="sourcePoint" />
            <mxPoint x="480" y="491" as="targetPoint" />
          </mxGeometry>
        </mxCell>
        <mxCell id="czVwdub7ews4Q5AFMh-5-33" value="" style="endArrow=none;html=1;rounded=0;" parent="1" source="czVwdub7ews4Q5AFMh-5-23" target="czVwdub7ews4Q5AFMh-5-2" edge="1">
          <mxGeometry width="50" height="50" relative="1" as="geometry">
            <mxPoint x="475" y="561" as="sourcePoint" />
            <mxPoint x="525" y="511" as="targetPoint" />
          </mxGeometry>
        </mxCell>
        <mxCell id="czVwdub7ews4Q5AFMh-5-34" value="" style="endArrow=none;html=1;rounded=0;" parent="1" source="czVwdub7ews4Q5AFMh-5-24" target="czVwdub7ews4Q5AFMh-5-2" edge="1">
          <mxGeometry width="50" height="50" relative="1" as="geometry">
            <mxPoint x="485" y="571" as="sourcePoint" />
            <mxPoint x="500" y="511" as="targetPoint" />
          </mxGeometry>
        </mxCell>
        <mxCell id="czVwdub7ews4Q5AFMh-5-39" value="melakukan" style="rhombus;whiteSpace=wrap;html=1;" parent="1" vertex="1">
          <mxGeometry x="199" y="481" width="80" height="80" as="geometry" />
        </mxCell>
        <mxCell id="czVwdub7ews4Q5AFMh-5-43" value="transaksi" style="rounded=0;whiteSpace=wrap;html=1;" parent="1" vertex="1">
          <mxGeometry x="179" y="641" width="120" height="60" as="geometry" />
        </mxCell>
        <mxCell id="czVwdub7ews4Q5AFMh-5-46" value="dicatat" style="rhombus;whiteSpace=wrap;html=1;" parent="1" vertex="1">
          <mxGeometry x="420" y="631" width="80" height="80" as="geometry" />
        </mxCell>
        <mxCell id="czVwdub7ews4Q5AFMh-5-47" value="petugas" style="rounded=0;whiteSpace=wrap;html=1;" parent="1" vertex="1">
          <mxGeometry x="621" y="641" width="120" height="60" as="geometry" />
        </mxCell>
        <mxCell id="czVwdub7ews4Q5AFMh-5-49" value="" style="endArrow=none;html=1;rounded=0;" parent="1" source="czVwdub7ews4Q5AFMh-5-46" target="czVwdub7ews4Q5AFMh-5-47" edge="1">
          <mxGeometry width="50" height="50" relative="1" as="geometry">
            <mxPoint x="480" y="521" as="sourcePoint" />
            <mxPoint x="530" y="471" as="targetPoint" />
          </mxGeometry>
        </mxCell>
        <mxCell id="czVwdub7ews4Q5AFMh-5-51" value="tgl_kembali" style="ellipse;whiteSpace=wrap;html=1;" parent="1" vertex="1">
          <mxGeometry x="90" y="711" width="70" height="40" as="geometry" />
        </mxCell>
        <mxCell id="czVwdub7ews4Q5AFMh-5-52" value="tgl_pinjam" style="ellipse;whiteSpace=wrap;html=1;" parent="1" vertex="1">
          <mxGeometry x="90" y="591" width="70" height="40" as="geometry" />
        </mxCell>
        <mxCell id="czVwdub7ews4Q5AFMh-5-55" value="nomor_telepon" style="ellipse;whiteSpace=wrap;html=1;" parent="1" vertex="1">
          <mxGeometry x="700" y="751" width="100" height="40" as="geometry" />
        </mxCell>
        <mxCell id="czVwdub7ews4Q5AFMh-5-56" value="alamat" style="ellipse;whiteSpace=wrap;html=1;" parent="1" vertex="1">
          <mxGeometry x="590" y="751" width="70" height="40" as="geometry" />
        </mxCell>
        <mxCell id="czVwdub7ews4Q5AFMh-5-57" value="nama_petugas" style="ellipse;whiteSpace=wrap;html=1;" parent="1" vertex="1">
          <mxGeometry x="700" y="561" width="110" height="40" as="geometry" />
        </mxCell>
        <mxCell id="czVwdub7ews4Q5AFMh-5-59" value="" style="endArrow=none;html=1;rounded=0;" parent="1" source="czVwdub7ews4Q5AFMh-5-55" target="czVwdub7ews4Q5AFMh-5-47" edge="1">
          <mxGeometry width="50" height="50" relative="1" as="geometry">
            <mxPoint x="470" y="691" as="sourcePoint" />
            <mxPoint x="520" y="641" as="targetPoint" />
          </mxGeometry>
        </mxCell>
        <mxCell id="czVwdub7ews4Q5AFMh-5-60" value="" style="endArrow=none;html=1;rounded=0;" parent="1" source="czVwdub7ews4Q5AFMh-5-56" target="czVwdub7ews4Q5AFMh-5-47" edge="1">
          <mxGeometry width="50" height="50" relative="1" as="geometry">
            <mxPoint x="480" y="701" as="sourcePoint" />
            <mxPoint x="530" y="651" as="targetPoint" />
          </mxGeometry>
        </mxCell>
        <mxCell id="czVwdub7ews4Q5AFMh-5-61" value="" style="endArrow=none;html=1;rounded=0;" parent="1" source="czVwdub7ews4Q5AFMh-5-47" target="czVwdub7ews4Q5AFMh-5-57" edge="1">
          <mxGeometry width="50" height="50" relative="1" as="geometry">
            <mxPoint x="490" y="711" as="sourcePoint" />
            <mxPoint x="540" y="661" as="targetPoint" />
          </mxGeometry>
        </mxCell>
        <mxCell id="czVwdub7ews4Q5AFMh-5-62" value="" style="endArrow=none;html=1;rounded=0;" parent="1" source="czVwdub7ews4Q5AFMh-5-76" edge="1">
          <mxGeometry width="50" height="50" relative="1" as="geometry">
            <mxPoint x="500" y="721" as="sourcePoint" />
            <mxPoint x="625.0464257179281" y="600.0729340086411" as="targetPoint" />
          </mxGeometry>
        </mxCell>
        <mxCell id="czVwdub7ews4Q5AFMh-5-72" value="" style="endArrow=none;html=1;rounded=0;" parent="1" source="czVwdub7ews4Q5AFMh-5-51" target="czVwdub7ews4Q5AFMh-5-43" edge="1">
          <mxGeometry relative="1" as="geometry">
            <mxPoint x="380" y="791" as="sourcePoint" />
            <mxPoint x="540" y="791" as="targetPoint" />
          </mxGeometry>
        </mxCell>
        <mxCell id="czVwdub7ews4Q5AFMh-5-73" value="" style="endArrow=none;html=1;rounded=0;" parent="1" source="czVwdub7ews4Q5AFMh-5-52" target="czVwdub7ews4Q5AFMh-5-43" edge="1">
          <mxGeometry relative="1" as="geometry">
            <mxPoint x="359" y="738" as="sourcePoint" />
            <mxPoint x="307" y="711" as="targetPoint" />
          </mxGeometry>
        </mxCell>
        <mxCell id="czVwdub7ews4Q5AFMh-5-74" value="" style="endArrow=none;html=1;rounded=0;" parent="1" source="KnYIEryw6Jq9mCscbxCg-61" target="czVwdub7ews4Q5AFMh-5-43" edge="1">
          <mxGeometry relative="1" as="geometry">
            <mxPoint x="140" y="671" as="sourcePoint" />
            <mxPoint x="317" y="721" as="targetPoint" />
          </mxGeometry>
        </mxCell>
        <mxCell id="czVwdub7ews4Q5AFMh-5-75" value="status" style="ellipse;whiteSpace=wrap;html=1;" parent="1" vertex="1">
          <mxGeometry x="204" y="721" width="70" height="40" as="geometry" />
        </mxCell>
        <mxCell id="czVwdub7ews4Q5AFMh-5-77" value="" style="endArrow=none;html=1;rounded=0;" parent="1" source="czVwdub7ews4Q5AFMh-5-47" target="czVwdub7ews4Q5AFMh-5-76" edge="1">
          <mxGeometry width="50" height="50" relative="1" as="geometry">
            <mxPoint x="657" y="641" as="sourcePoint" />
            <mxPoint x="625.0464257179281" y="600.0729340086411" as="targetPoint" />
          </mxGeometry>
        </mxCell>
        <mxCell id="czVwdub7ews4Q5AFMh-5-76" value="id_petugas" style="ellipse;whiteSpace=wrap;html=1;align=center;fontStyle=4;" parent="1" vertex="1">
          <mxGeometry x="560" y="561" width="100" height="40" as="geometry" />
        </mxCell>
        <mxCell id="czVwdub7ews4Q5AFMh-5-78" value="kd_buku" style="ellipse;whiteSpace=wrap;html=1;align=center;fontStyle=4;" parent="1" vertex="1">
          <mxGeometry x="790" y="301" width="100" height="40" as="geometry" />
        </mxCell>
        <mxCell id="czVwdub7ews4Q5AFMh-5-82" value="kd_anggota" style="ellipse;whiteSpace=wrap;html=1;align=center;fontStyle=4;" parent="1" vertex="1">
          <mxGeometry x="269" y="221" width="100" height="40" as="geometry" />
        </mxCell>
        <mxCell id="czVwdub7ews4Q5AFMh-5-85" value="" style="endArrow=none;html=1;rounded=0;" parent="1" source="czVwdub7ews4Q5AFMh-5-43" target="czVwdub7ews4Q5AFMh-5-75" edge="1">
          <mxGeometry relative="1" as="geometry">
            <mxPoint x="350" y="711" as="sourcePoint" />
            <mxPoint x="510" y="711" as="targetPoint" />
          </mxGeometry>
        </mxCell>
        <mxCell id="czVwdub7ews4Q5AFMh-5-86" value="" style="edgeStyle=entityRelationEdgeStyle;fontSize=12;html=1;endArrow=ERoneToMany;rounded=0;" parent="1" source="czVwdub7ews4Q5AFMh-5-3" target="czVwdub7ews4Q5AFMh-5-1" edge="1">
          <mxGeometry width="100" height="100" relative="1" as="geometry">
            <mxPoint x="380" y="391" as="sourcePoint" />
            <mxPoint x="480" y="291" as="targetPoint" />
          </mxGeometry>
        </mxCell>
        <mxCell id="KnYIEryw6Jq9mCscbxCg-3" value="" style="fontSize=12;html=1;endArrow=ERoneToMany;rounded=0;" edge="1" parent="1" source="czVwdub7ews4Q5AFMh-5-39" target="czVwdub7ews4Q5AFMh-5-43">
          <mxGeometry width="100" height="100" relative="1" as="geometry">
            <mxPoint x="260" y="581" as="sourcePoint" />
            <mxPoint x="340" y="491" as="targetPoint" />
            <Array as="points" />
          </mxGeometry>
        </mxCell>
        <mxCell id="KnYIEryw6Jq9mCscbxCg-5" value="" style="endArrow=none;html=1;rounded=0;" edge="1" parent="1" source="czVwdub7ews4Q5AFMh-5-2" target="czVwdub7ews4Q5AFMh-5-39">
          <mxGeometry relative="1" as="geometry">
            <mxPoint x="280" y="521" as="sourcePoint" />
            <mxPoint x="440" y="521" as="targetPoint" />
          </mxGeometry>
        </mxCell>
        <mxCell id="KnYIEryw6Jq9mCscbxCg-6" value="" style="endArrow=none;html=1;rounded=0;" edge="1" parent="1" source="czVwdub7ews4Q5AFMh-5-2" target="czVwdub7ews4Q5AFMh-5-3">
          <mxGeometry relative="1" as="geometry">
            <mxPoint x="280" y="391" as="sourcePoint" />
            <mxPoint x="440" y="391" as="targetPoint" />
          </mxGeometry>
        </mxCell>
        <mxCell id="KnYIEryw6Jq9mCscbxCg-7" value="" style="edgeStyle=entityRelationEdgeStyle;fontSize=12;html=1;endArrow=ERoneToMany;rounded=0;" edge="1" parent="1" source="czVwdub7ews4Q5AFMh-5-46" target="czVwdub7ews4Q5AFMh-5-43">
          <mxGeometry width="100" height="100" relative="1" as="geometry">
            <mxPoint x="450" y="681" as="sourcePoint" />
            <mxPoint x="550" y="581" as="targetPoint" />
          </mxGeometry>
        </mxCell>
        <mxCell id="KnYIEryw6Jq9mCscbxCg-8" value="anggota" style="shape=table;startSize=30;container=1;collapsible=1;childLayout=tableLayout;fixedRows=1;rowLines=0;fontStyle=1;align=center;resizeLast=1;html=1;" vertex="1" parent="1">
          <mxGeometry x="1114" y="230" width="180" height="210" as="geometry" />
        </mxCell>
        <mxCell id="KnYIEryw6Jq9mCscbxCg-9" value="" style="shape=tableRow;horizontal=0;startSize=0;swimlaneHead=0;swimlaneBody=0;fillColor=none;collapsible=0;dropTarget=0;points=[[0,0.5],[1,0.5]];portConstraint=eastwest;top=0;left=0;right=0;bottom=1;" vertex="1" parent="KnYIEryw6Jq9mCscbxCg-8">
          <mxGeometry y="30" width="180" height="30" as="geometry" />
        </mxCell>
        <mxCell id="KnYIEryw6Jq9mCscbxCg-10" value="PK" style="shape=partialRectangle;connectable=0;fillColor=none;top=0;left=0;bottom=0;right=0;fontStyle=1;overflow=hidden;whiteSpace=wrap;html=1;" vertex="1" parent="KnYIEryw6Jq9mCscbxCg-9">
          <mxGeometry width="30" height="30" as="geometry">
            <mxRectangle width="30" height="30" as="alternateBounds" />
          </mxGeometry>
        </mxCell>
        <mxCell id="KnYIEryw6Jq9mCscbxCg-11" value="kd_anggota" style="shape=partialRectangle;connectable=0;fillColor=none;top=0;left=0;bottom=0;right=0;align=left;spacingLeft=6;fontStyle=5;overflow=hidden;whiteSpace=wrap;html=1;" vertex="1" parent="KnYIEryw6Jq9mCscbxCg-9">
          <mxGeometry x="30" width="150" height="30" as="geometry">
            <mxRectangle width="150" height="30" as="alternateBounds" />
          </mxGeometry>
        </mxCell>
        <mxCell id="KnYIEryw6Jq9mCscbxCg-12" value="" style="shape=tableRow;horizontal=0;startSize=0;swimlaneHead=0;swimlaneBody=0;fillColor=none;collapsible=0;dropTarget=0;points=[[0,0.5],[1,0.5]];portConstraint=eastwest;top=0;left=0;right=0;bottom=0;" vertex="1" parent="KnYIEryw6Jq9mCscbxCg-8">
          <mxGeometry y="60" width="180" height="30" as="geometry" />
        </mxCell>
        <mxCell id="KnYIEryw6Jq9mCscbxCg-13" value="" style="shape=partialRectangle;connectable=0;fillColor=none;top=0;left=0;bottom=0;right=0;editable=1;overflow=hidden;whiteSpace=wrap;html=1;" vertex="1" parent="KnYIEryw6Jq9mCscbxCg-12">
          <mxGeometry width="30" height="30" as="geometry">
            <mxRectangle width="30" height="30" as="alternateBounds" />
          </mxGeometry>
        </mxCell>
        <mxCell id="KnYIEryw6Jq9mCscbxCg-14" value="jurusan" style="shape=partialRectangle;connectable=0;fillColor=none;top=0;left=0;bottom=0;right=0;align=left;spacingLeft=6;overflow=hidden;whiteSpace=wrap;html=1;" vertex="1" parent="KnYIEryw6Jq9mCscbxCg-12">
          <mxGeometry x="30" width="150" height="30" as="geometry">
            <mxRectangle width="150" height="30" as="alternateBounds" />
          </mxGeometry>
        </mxCell>
        <mxCell id="KnYIEryw6Jq9mCscbxCg-15" value="" style="shape=tableRow;horizontal=0;startSize=0;swimlaneHead=0;swimlaneBody=0;fillColor=none;collapsible=0;dropTarget=0;points=[[0,0.5],[1,0.5]];portConstraint=eastwest;top=0;left=0;right=0;bottom=0;" vertex="1" parent="KnYIEryw6Jq9mCscbxCg-8">
          <mxGeometry y="90" width="180" height="30" as="geometry" />
        </mxCell>
        <mxCell id="KnYIEryw6Jq9mCscbxCg-16" value="" style="shape=partialRectangle;connectable=0;fillColor=none;top=0;left=0;bottom=0;right=0;editable=1;overflow=hidden;whiteSpace=wrap;html=1;" vertex="1" parent="KnYIEryw6Jq9mCscbxCg-15">
          <mxGeometry width="30" height="30" as="geometry">
            <mxRectangle width="30" height="30" as="alternateBounds" />
          </mxGeometry>
        </mxCell>
        <mxCell id="KnYIEryw6Jq9mCscbxCg-17" value="kelas" style="shape=partialRectangle;connectable=0;fillColor=none;top=0;left=0;bottom=0;right=0;align=left;spacingLeft=6;overflow=hidden;whiteSpace=wrap;html=1;" vertex="1" parent="KnYIEryw6Jq9mCscbxCg-15">
          <mxGeometry x="30" width="150" height="30" as="geometry">
            <mxRectangle width="150" height="30" as="alternateBounds" />
          </mxGeometry>
        </mxCell>
        <mxCell id="KnYIEryw6Jq9mCscbxCg-18" value="" style="shape=tableRow;horizontal=0;startSize=0;swimlaneHead=0;swimlaneBody=0;fillColor=none;collapsible=0;dropTarget=0;points=[[0,0.5],[1,0.5]];portConstraint=eastwest;top=0;left=0;right=0;bottom=0;" vertex="1" parent="KnYIEryw6Jq9mCscbxCg-8">
          <mxGeometry y="120" width="180" height="30" as="geometry" />
        </mxCell>
        <mxCell id="KnYIEryw6Jq9mCscbxCg-19" value="" style="shape=partialRectangle;connectable=0;fillColor=none;top=0;left=0;bottom=0;right=0;editable=1;overflow=hidden;whiteSpace=wrap;html=1;" vertex="1" parent="KnYIEryw6Jq9mCscbxCg-18">
          <mxGeometry width="30" height="30" as="geometry">
            <mxRectangle width="30" height="30" as="alternateBounds" />
          </mxGeometry>
        </mxCell>
        <mxCell id="KnYIEryw6Jq9mCscbxCg-20" value="fullname" style="shape=partialRectangle;connectable=0;fillColor=none;top=0;left=0;bottom=0;right=0;align=left;spacingLeft=6;overflow=hidden;whiteSpace=wrap;html=1;" vertex="1" parent="KnYIEryw6Jq9mCscbxCg-18">
          <mxGeometry x="30" width="150" height="30" as="geometry">
            <mxRectangle width="150" height="30" as="alternateBounds" />
          </mxGeometry>
        </mxCell>
        <mxCell id="KnYIEryw6Jq9mCscbxCg-66" style="shape=tableRow;horizontal=0;startSize=0;swimlaneHead=0;swimlaneBody=0;fillColor=none;collapsible=0;dropTarget=0;points=[[0,0.5],[1,0.5]];portConstraint=eastwest;top=0;left=0;right=0;bottom=0;" vertex="1" parent="KnYIEryw6Jq9mCscbxCg-8">
          <mxGeometry y="150" width="180" height="30" as="geometry" />
        </mxCell>
        <mxCell id="KnYIEryw6Jq9mCscbxCg-67" style="shape=partialRectangle;connectable=0;fillColor=none;top=0;left=0;bottom=0;right=0;editable=1;overflow=hidden;whiteSpace=wrap;html=1;" vertex="1" parent="KnYIEryw6Jq9mCscbxCg-66">
          <mxGeometry width="30" height="30" as="geometry">
            <mxRectangle width="30" height="30" as="alternateBounds" />
          </mxGeometry>
        </mxCell>
        <mxCell id="KnYIEryw6Jq9mCscbxCg-68" value="alamat" style="shape=partialRectangle;connectable=0;fillColor=none;top=0;left=0;bottom=0;right=0;align=left;spacingLeft=6;overflow=hidden;whiteSpace=wrap;html=1;" vertex="1" parent="KnYIEryw6Jq9mCscbxCg-66">
          <mxGeometry x="30" width="150" height="30" as="geometry">
            <mxRectangle width="150" height="30" as="alternateBounds" />
          </mxGeometry>
        </mxCell>
        <mxCell id="KnYIEryw6Jq9mCscbxCg-69" style="shape=tableRow;horizontal=0;startSize=0;swimlaneHead=0;swimlaneBody=0;fillColor=none;collapsible=0;dropTarget=0;points=[[0,0.5],[1,0.5]];portConstraint=eastwest;top=0;left=0;right=0;bottom=0;" vertex="1" parent="KnYIEryw6Jq9mCscbxCg-8">
          <mxGeometry y="180" width="180" height="30" as="geometry" />
        </mxCell>
        <mxCell id="KnYIEryw6Jq9mCscbxCg-70" style="shape=partialRectangle;connectable=0;fillColor=none;top=0;left=0;bottom=0;right=0;editable=1;overflow=hidden;whiteSpace=wrap;html=1;" vertex="1" parent="KnYIEryw6Jq9mCscbxCg-69">
          <mxGeometry width="30" height="30" as="geometry">
            <mxRectangle width="30" height="30" as="alternateBounds" />
          </mxGeometry>
        </mxCell>
        <mxCell id="KnYIEryw6Jq9mCscbxCg-71" value="no_telp" style="shape=partialRectangle;connectable=0;fillColor=none;top=0;left=0;bottom=0;right=0;align=left;spacingLeft=6;overflow=hidden;whiteSpace=wrap;html=1;" vertex="1" parent="KnYIEryw6Jq9mCscbxCg-69">
          <mxGeometry x="30" width="150" height="30" as="geometry">
            <mxRectangle width="150" height="30" as="alternateBounds" />
          </mxGeometry>
        </mxCell>
        <mxCell id="KnYIEryw6Jq9mCscbxCg-21" value="buku" style="shape=table;startSize=30;container=1;collapsible=1;childLayout=tableLayout;fixedRows=1;rowLines=0;fontStyle=1;align=center;resizeLast=1;html=1;" vertex="1" parent="1">
          <mxGeometry x="1464" y="230" width="180" height="180" as="geometry" />
        </mxCell>
        <mxCell id="KnYIEryw6Jq9mCscbxCg-22" value="" style="shape=tableRow;horizontal=0;startSize=0;swimlaneHead=0;swimlaneBody=0;fillColor=none;collapsible=0;dropTarget=0;points=[[0,0.5],[1,0.5]];portConstraint=eastwest;top=0;left=0;right=0;bottom=1;" vertex="1" parent="KnYIEryw6Jq9mCscbxCg-21">
          <mxGeometry y="30" width="180" height="30" as="geometry" />
        </mxCell>
        <mxCell id="KnYIEryw6Jq9mCscbxCg-23" value="PK" style="shape=partialRectangle;connectable=0;fillColor=none;top=0;left=0;bottom=0;right=0;fontStyle=1;overflow=hidden;whiteSpace=wrap;html=1;" vertex="1" parent="KnYIEryw6Jq9mCscbxCg-22">
          <mxGeometry width="30" height="30" as="geometry">
            <mxRectangle width="30" height="30" as="alternateBounds" />
          </mxGeometry>
        </mxCell>
        <mxCell id="KnYIEryw6Jq9mCscbxCg-24" value="kd_buku" style="shape=partialRectangle;connectable=0;fillColor=none;top=0;left=0;bottom=0;right=0;align=left;spacingLeft=6;fontStyle=5;overflow=hidden;whiteSpace=wrap;html=1;" vertex="1" parent="KnYIEryw6Jq9mCscbxCg-22">
          <mxGeometry x="30" width="150" height="30" as="geometry">
            <mxRectangle width="150" height="30" as="alternateBounds" />
          </mxGeometry>
        </mxCell>
        <mxCell id="KnYIEryw6Jq9mCscbxCg-25" value="" style="shape=tableRow;horizontal=0;startSize=0;swimlaneHead=0;swimlaneBody=0;fillColor=none;collapsible=0;dropTarget=0;points=[[0,0.5],[1,0.5]];portConstraint=eastwest;top=0;left=0;right=0;bottom=0;" vertex="1" parent="KnYIEryw6Jq9mCscbxCg-21">
          <mxGeometry y="60" width="180" height="30" as="geometry" />
        </mxCell>
        <mxCell id="KnYIEryw6Jq9mCscbxCg-26" value="FK" style="shape=partialRectangle;connectable=0;fillColor=none;top=0;left=0;bottom=0;right=0;editable=1;overflow=hidden;whiteSpace=wrap;html=1;" vertex="1" parent="KnYIEryw6Jq9mCscbxCg-25">
          <mxGeometry width="30" height="30" as="geometry">
            <mxRectangle width="30" height="30" as="alternateBounds" />
          </mxGeometry>
        </mxCell>
        <mxCell id="KnYIEryw6Jq9mCscbxCg-27" value="id_anggota" style="shape=partialRectangle;connectable=0;fillColor=none;top=0;left=0;bottom=0;right=0;align=left;spacingLeft=6;overflow=hidden;whiteSpace=wrap;html=1;" vertex="1" parent="KnYIEryw6Jq9mCscbxCg-25">
          <mxGeometry x="30" width="150" height="30" as="geometry">
            <mxRectangle width="150" height="30" as="alternateBounds" />
          </mxGeometry>
        </mxCell>
        <mxCell id="KnYIEryw6Jq9mCscbxCg-28" value="" style="shape=tableRow;horizontal=0;startSize=0;swimlaneHead=0;swimlaneBody=0;fillColor=none;collapsible=0;dropTarget=0;points=[[0,0.5],[1,0.5]];portConstraint=eastwest;top=0;left=0;right=0;bottom=0;" vertex="1" parent="KnYIEryw6Jq9mCscbxCg-21">
          <mxGeometry y="90" width="180" height="30" as="geometry" />
        </mxCell>
        <mxCell id="KnYIEryw6Jq9mCscbxCg-29" value="" style="shape=partialRectangle;connectable=0;fillColor=none;top=0;left=0;bottom=0;right=0;editable=1;overflow=hidden;whiteSpace=wrap;html=1;" vertex="1" parent="KnYIEryw6Jq9mCscbxCg-28">
          <mxGeometry width="30" height="30" as="geometry">
            <mxRectangle width="30" height="30" as="alternateBounds" />
          </mxGeometry>
        </mxCell>
        <mxCell id="KnYIEryw6Jq9mCscbxCg-30" value="tahun_terbit" style="shape=partialRectangle;connectable=0;fillColor=none;top=0;left=0;bottom=0;right=0;align=left;spacingLeft=6;overflow=hidden;whiteSpace=wrap;html=1;" vertex="1" parent="KnYIEryw6Jq9mCscbxCg-28">
          <mxGeometry x="30" width="150" height="30" as="geometry">
            <mxRectangle width="150" height="30" as="alternateBounds" />
          </mxGeometry>
        </mxCell>
        <mxCell id="KnYIEryw6Jq9mCscbxCg-31" value="" style="shape=tableRow;horizontal=0;startSize=0;swimlaneHead=0;swimlaneBody=0;fillColor=none;collapsible=0;dropTarget=0;points=[[0,0.5],[1,0.5]];portConstraint=eastwest;top=0;left=0;right=0;bottom=0;" vertex="1" parent="KnYIEryw6Jq9mCscbxCg-21">
          <mxGeometry y="120" width="180" height="30" as="geometry" />
        </mxCell>
        <mxCell id="KnYIEryw6Jq9mCscbxCg-32" value="" style="shape=partialRectangle;connectable=0;fillColor=none;top=0;left=0;bottom=0;right=0;editable=1;overflow=hidden;whiteSpace=wrap;html=1;" vertex="1" parent="KnYIEryw6Jq9mCscbxCg-31">
          <mxGeometry width="30" height="30" as="geometry">
            <mxRectangle width="30" height="30" as="alternateBounds" />
          </mxGeometry>
        </mxCell>
        <mxCell id="KnYIEryw6Jq9mCscbxCg-33" value="penerbit" style="shape=partialRectangle;connectable=0;fillColor=none;top=0;left=0;bottom=0;right=0;align=left;spacingLeft=6;overflow=hidden;whiteSpace=wrap;html=1;" vertex="1" parent="KnYIEryw6Jq9mCscbxCg-31">
          <mxGeometry x="30" width="150" height="30" as="geometry">
            <mxRectangle width="150" height="30" as="alternateBounds" />
          </mxGeometry>
        </mxCell>
        <mxCell id="KnYIEryw6Jq9mCscbxCg-63" style="shape=tableRow;horizontal=0;startSize=0;swimlaneHead=0;swimlaneBody=0;fillColor=none;collapsible=0;dropTarget=0;points=[[0,0.5],[1,0.5]];portConstraint=eastwest;top=0;left=0;right=0;bottom=0;" vertex="1" parent="KnYIEryw6Jq9mCscbxCg-21">
          <mxGeometry y="150" width="180" height="30" as="geometry" />
        </mxCell>
        <mxCell id="KnYIEryw6Jq9mCscbxCg-64" style="shape=partialRectangle;connectable=0;fillColor=none;top=0;left=0;bottom=0;right=0;editable=1;overflow=hidden;whiteSpace=wrap;html=1;" vertex="1" parent="KnYIEryw6Jq9mCscbxCg-63">
          <mxGeometry width="30" height="30" as="geometry">
            <mxRectangle width="30" height="30" as="alternateBounds" />
          </mxGeometry>
        </mxCell>
        <mxCell id="KnYIEryw6Jq9mCscbxCg-65" value="penulis" style="shape=partialRectangle;connectable=0;fillColor=none;top=0;left=0;bottom=0;right=0;align=left;spacingLeft=6;overflow=hidden;whiteSpace=wrap;html=1;" vertex="1" parent="KnYIEryw6Jq9mCscbxCg-63">
          <mxGeometry x="30" width="150" height="30" as="geometry">
            <mxRectangle width="150" height="30" as="alternateBounds" />
          </mxGeometry>
        </mxCell>
        <mxCell id="KnYIEryw6Jq9mCscbxCg-34" value="transaksi" style="shape=table;startSize=30;container=1;collapsible=1;childLayout=tableLayout;fixedRows=1;rowLines=0;fontStyle=1;align=center;resizeLast=1;html=1;" vertex="1" parent="1">
          <mxGeometry x="1115" y="510" width="180" height="210" as="geometry" />
        </mxCell>
        <mxCell id="KnYIEryw6Jq9mCscbxCg-35" value="" style="shape=tableRow;horizontal=0;startSize=0;swimlaneHead=0;swimlaneBody=0;fillColor=none;collapsible=0;dropTarget=0;points=[[0,0.5],[1,0.5]];portConstraint=eastwest;top=0;left=0;right=0;bottom=1;" vertex="1" parent="KnYIEryw6Jq9mCscbxCg-34">
          <mxGeometry y="30" width="180" height="30" as="geometry" />
        </mxCell>
        <mxCell id="KnYIEryw6Jq9mCscbxCg-36" value="PK" style="shape=partialRectangle;connectable=0;fillColor=none;top=0;left=0;bottom=0;right=0;fontStyle=1;overflow=hidden;whiteSpace=wrap;html=1;" vertex="1" parent="KnYIEryw6Jq9mCscbxCg-35">
          <mxGeometry width="30" height="30" as="geometry">
            <mxRectangle width="30" height="30" as="alternateBounds" />
          </mxGeometry>
        </mxCell>
        <mxCell id="KnYIEryw6Jq9mCscbxCg-37" value="id_transaksi" style="shape=partialRectangle;connectable=0;fillColor=none;top=0;left=0;bottom=0;right=0;align=left;spacingLeft=6;fontStyle=5;overflow=hidden;whiteSpace=wrap;html=1;" vertex="1" parent="KnYIEryw6Jq9mCscbxCg-35">
          <mxGeometry x="30" width="150" height="30" as="geometry">
            <mxRectangle width="150" height="30" as="alternateBounds" />
          </mxGeometry>
        </mxCell>
        <mxCell id="KnYIEryw6Jq9mCscbxCg-38" value="" style="shape=tableRow;horizontal=0;startSize=0;swimlaneHead=0;swimlaneBody=0;fillColor=none;collapsible=0;dropTarget=0;points=[[0,0.5],[1,0.5]];portConstraint=eastwest;top=0;left=0;right=0;bottom=0;" vertex="1" parent="KnYIEryw6Jq9mCscbxCg-34">
          <mxGeometry y="60" width="180" height="30" as="geometry" />
        </mxCell>
        <mxCell id="KnYIEryw6Jq9mCscbxCg-39" value="FK" style="shape=partialRectangle;connectable=0;fillColor=none;top=0;left=0;bottom=0;right=0;editable=1;overflow=hidden;whiteSpace=wrap;html=1;" vertex="1" parent="KnYIEryw6Jq9mCscbxCg-38">
          <mxGeometry width="30" height="30" as="geometry">
            <mxRectangle width="30" height="30" as="alternateBounds" />
          </mxGeometry>
        </mxCell>
        <mxCell id="KnYIEryw6Jq9mCscbxCg-40" value="&lt;span style=&quot;font-weight: 700; text-decoration-line: underline;&quot;&gt;kd_anggota&lt;/span&gt;" style="shape=partialRectangle;connectable=0;fillColor=none;top=0;left=0;bottom=0;right=0;align=left;spacingLeft=6;overflow=hidden;whiteSpace=wrap;html=1;" vertex="1" parent="KnYIEryw6Jq9mCscbxCg-38">
          <mxGeometry x="30" width="150" height="30" as="geometry">
            <mxRectangle width="150" height="30" as="alternateBounds" />
          </mxGeometry>
        </mxCell>
        <mxCell id="KnYIEryw6Jq9mCscbxCg-41" value="" style="shape=tableRow;horizontal=0;startSize=0;swimlaneHead=0;swimlaneBody=0;fillColor=none;collapsible=0;dropTarget=0;points=[[0,0.5],[1,0.5]];portConstraint=eastwest;top=0;left=0;right=0;bottom=0;" vertex="1" parent="KnYIEryw6Jq9mCscbxCg-34">
          <mxGeometry y="90" width="180" height="30" as="geometry" />
        </mxCell>
        <mxCell id="KnYIEryw6Jq9mCscbxCg-42" value="FK" style="shape=partialRectangle;connectable=0;fillColor=none;top=0;left=0;bottom=0;right=0;editable=1;overflow=hidden;whiteSpace=wrap;html=1;" vertex="1" parent="KnYIEryw6Jq9mCscbxCg-41">
          <mxGeometry width="30" height="30" as="geometry">
            <mxRectangle width="30" height="30" as="alternateBounds" />
          </mxGeometry>
        </mxCell>
        <mxCell id="KnYIEryw6Jq9mCscbxCg-43" value="id_petugas" style="shape=partialRectangle;connectable=0;fillColor=none;top=0;left=0;bottom=0;right=0;align=left;spacingLeft=6;overflow=hidden;whiteSpace=wrap;html=1;" vertex="1" parent="KnYIEryw6Jq9mCscbxCg-41">
          <mxGeometry x="30" width="150" height="30" as="geometry">
            <mxRectangle width="150" height="30" as="alternateBounds" />
          </mxGeometry>
        </mxCell>
        <mxCell id="KnYIEryw6Jq9mCscbxCg-44" value="" style="shape=tableRow;horizontal=0;startSize=0;swimlaneHead=0;swimlaneBody=0;fillColor=none;collapsible=0;dropTarget=0;points=[[0,0.5],[1,0.5]];portConstraint=eastwest;top=0;left=0;right=0;bottom=0;" vertex="1" parent="KnYIEryw6Jq9mCscbxCg-34">
          <mxGeometry y="120" width="180" height="30" as="geometry" />
        </mxCell>
        <mxCell id="KnYIEryw6Jq9mCscbxCg-45" value="" style="shape=partialRectangle;connectable=0;fillColor=none;top=0;left=0;bottom=0;right=0;editable=1;overflow=hidden;whiteSpace=wrap;html=1;" vertex="1" parent="KnYIEryw6Jq9mCscbxCg-44">
          <mxGeometry width="30" height="30" as="geometry">
            <mxRectangle width="30" height="30" as="alternateBounds" />
          </mxGeometry>
        </mxCell>
        <mxCell id="KnYIEryw6Jq9mCscbxCg-46" value="tgl_pinjam" style="shape=partialRectangle;connectable=0;fillColor=none;top=0;left=0;bottom=0;right=0;align=left;spacingLeft=6;overflow=hidden;whiteSpace=wrap;html=1;" vertex="1" parent="KnYIEryw6Jq9mCscbxCg-44">
          <mxGeometry x="30" width="150" height="30" as="geometry">
            <mxRectangle width="150" height="30" as="alternateBounds" />
          </mxGeometry>
        </mxCell>
        <mxCell id="KnYIEryw6Jq9mCscbxCg-76" style="shape=tableRow;horizontal=0;startSize=0;swimlaneHead=0;swimlaneBody=0;fillColor=none;collapsible=0;dropTarget=0;points=[[0,0.5],[1,0.5]];portConstraint=eastwest;top=0;left=0;right=0;bottom=0;" vertex="1" parent="KnYIEryw6Jq9mCscbxCg-34">
          <mxGeometry y="150" width="180" height="30" as="geometry" />
        </mxCell>
        <mxCell id="KnYIEryw6Jq9mCscbxCg-77" style="shape=partialRectangle;connectable=0;fillColor=none;top=0;left=0;bottom=0;right=0;editable=1;overflow=hidden;whiteSpace=wrap;html=1;" vertex="1" parent="KnYIEryw6Jq9mCscbxCg-76">
          <mxGeometry width="30" height="30" as="geometry">
            <mxRectangle width="30" height="30" as="alternateBounds" />
          </mxGeometry>
        </mxCell>
        <mxCell id="KnYIEryw6Jq9mCscbxCg-78" value="tgl_kembali" style="shape=partialRectangle;connectable=0;fillColor=none;top=0;left=0;bottom=0;right=0;align=left;spacingLeft=6;overflow=hidden;whiteSpace=wrap;html=1;" vertex="1" parent="KnYIEryw6Jq9mCscbxCg-76">
          <mxGeometry x="30" width="150" height="30" as="geometry">
            <mxRectangle width="150" height="30" as="alternateBounds" />
          </mxGeometry>
        </mxCell>
        <mxCell id="KnYIEryw6Jq9mCscbxCg-79" style="shape=tableRow;horizontal=0;startSize=0;swimlaneHead=0;swimlaneBody=0;fillColor=none;collapsible=0;dropTarget=0;points=[[0,0.5],[1,0.5]];portConstraint=eastwest;top=0;left=0;right=0;bottom=0;" vertex="1" parent="KnYIEryw6Jq9mCscbxCg-34">
          <mxGeometry y="180" width="180" height="30" as="geometry" />
        </mxCell>
        <mxCell id="KnYIEryw6Jq9mCscbxCg-80" style="shape=partialRectangle;connectable=0;fillColor=none;top=0;left=0;bottom=0;right=0;editable=1;overflow=hidden;whiteSpace=wrap;html=1;" vertex="1" parent="KnYIEryw6Jq9mCscbxCg-79">
          <mxGeometry width="30" height="30" as="geometry">
            <mxRectangle width="30" height="30" as="alternateBounds" />
          </mxGeometry>
        </mxCell>
        <mxCell id="KnYIEryw6Jq9mCscbxCg-81" value="status" style="shape=partialRectangle;connectable=0;fillColor=none;top=0;left=0;bottom=0;right=0;align=left;spacingLeft=6;overflow=hidden;whiteSpace=wrap;html=1;" vertex="1" parent="KnYIEryw6Jq9mCscbxCg-79">
          <mxGeometry x="30" width="150" height="30" as="geometry">
            <mxRectangle width="150" height="30" as="alternateBounds" />
          </mxGeometry>
        </mxCell>
        <mxCell id="KnYIEryw6Jq9mCscbxCg-47" value="petugas" style="shape=table;startSize=30;container=1;collapsible=1;childLayout=tableLayout;fixedRows=1;rowLines=0;fontStyle=1;align=center;resizeLast=1;html=1;" vertex="1" parent="1">
          <mxGeometry x="1464" y="510" width="180" height="150" as="geometry" />
        </mxCell>
        <mxCell id="KnYIEryw6Jq9mCscbxCg-48" value="" style="shape=tableRow;horizontal=0;startSize=0;swimlaneHead=0;swimlaneBody=0;fillColor=none;collapsible=0;dropTarget=0;points=[[0,0.5],[1,0.5]];portConstraint=eastwest;top=0;left=0;right=0;bottom=1;" vertex="1" parent="KnYIEryw6Jq9mCscbxCg-47">
          <mxGeometry y="30" width="180" height="30" as="geometry" />
        </mxCell>
        <mxCell id="KnYIEryw6Jq9mCscbxCg-49" value="PK" style="shape=partialRectangle;connectable=0;fillColor=none;top=0;left=0;bottom=0;right=0;fontStyle=1;overflow=hidden;whiteSpace=wrap;html=1;" vertex="1" parent="KnYIEryw6Jq9mCscbxCg-48">
          <mxGeometry width="30" height="30" as="geometry">
            <mxRectangle width="30" height="30" as="alternateBounds" />
          </mxGeometry>
        </mxCell>
        <mxCell id="KnYIEryw6Jq9mCscbxCg-50" value="id_petugas" style="shape=partialRectangle;connectable=0;fillColor=none;top=0;left=0;bottom=0;right=0;align=left;spacingLeft=6;fontStyle=5;overflow=hidden;whiteSpace=wrap;html=1;" vertex="1" parent="KnYIEryw6Jq9mCscbxCg-48">
          <mxGeometry x="30" width="150" height="30" as="geometry">
            <mxRectangle width="150" height="30" as="alternateBounds" />
          </mxGeometry>
        </mxCell>
        <mxCell id="KnYIEryw6Jq9mCscbxCg-51" value="" style="shape=tableRow;horizontal=0;startSize=0;swimlaneHead=0;swimlaneBody=0;fillColor=none;collapsible=0;dropTarget=0;points=[[0,0.5],[1,0.5]];portConstraint=eastwest;top=0;left=0;right=0;bottom=0;" vertex="1" parent="KnYIEryw6Jq9mCscbxCg-47">
          <mxGeometry y="60" width="180" height="30" as="geometry" />
        </mxCell>
        <mxCell id="KnYIEryw6Jq9mCscbxCg-52" value="" style="shape=partialRectangle;connectable=0;fillColor=none;top=0;left=0;bottom=0;right=0;editable=1;overflow=hidden;whiteSpace=wrap;html=1;" vertex="1" parent="KnYIEryw6Jq9mCscbxCg-51">
          <mxGeometry width="30" height="30" as="geometry">
            <mxRectangle width="30" height="30" as="alternateBounds" />
          </mxGeometry>
        </mxCell>
        <mxCell id="KnYIEryw6Jq9mCscbxCg-53" value="nama_petugas" style="shape=partialRectangle;connectable=0;fillColor=none;top=0;left=0;bottom=0;right=0;align=left;spacingLeft=6;overflow=hidden;whiteSpace=wrap;html=1;" vertex="1" parent="KnYIEryw6Jq9mCscbxCg-51">
          <mxGeometry x="30" width="150" height="30" as="geometry">
            <mxRectangle width="150" height="30" as="alternateBounds" />
          </mxGeometry>
        </mxCell>
        <mxCell id="KnYIEryw6Jq9mCscbxCg-54" value="" style="shape=tableRow;horizontal=0;startSize=0;swimlaneHead=0;swimlaneBody=0;fillColor=none;collapsible=0;dropTarget=0;points=[[0,0.5],[1,0.5]];portConstraint=eastwest;top=0;left=0;right=0;bottom=0;" vertex="1" parent="KnYIEryw6Jq9mCscbxCg-47">
          <mxGeometry y="90" width="180" height="30" as="geometry" />
        </mxCell>
        <mxCell id="KnYIEryw6Jq9mCscbxCg-55" value="" style="shape=partialRectangle;connectable=0;fillColor=none;top=0;left=0;bottom=0;right=0;editable=1;overflow=hidden;whiteSpace=wrap;html=1;" vertex="1" parent="KnYIEryw6Jq9mCscbxCg-54">
          <mxGeometry width="30" height="30" as="geometry">
            <mxRectangle width="30" height="30" as="alternateBounds" />
          </mxGeometry>
        </mxCell>
        <mxCell id="KnYIEryw6Jq9mCscbxCg-56" value="nomor_telepon" style="shape=partialRectangle;connectable=0;fillColor=none;top=0;left=0;bottom=0;right=0;align=left;spacingLeft=6;overflow=hidden;whiteSpace=wrap;html=1;" vertex="1" parent="KnYIEryw6Jq9mCscbxCg-54">
          <mxGeometry x="30" width="150" height="30" as="geometry">
            <mxRectangle width="150" height="30" as="alternateBounds" />
          </mxGeometry>
        </mxCell>
        <mxCell id="KnYIEryw6Jq9mCscbxCg-57" value="" style="shape=tableRow;horizontal=0;startSize=0;swimlaneHead=0;swimlaneBody=0;fillColor=none;collapsible=0;dropTarget=0;points=[[0,0.5],[1,0.5]];portConstraint=eastwest;top=0;left=0;right=0;bottom=0;" vertex="1" parent="KnYIEryw6Jq9mCscbxCg-47">
          <mxGeometry y="120" width="180" height="30" as="geometry" />
        </mxCell>
        <mxCell id="KnYIEryw6Jq9mCscbxCg-58" value="" style="shape=partialRectangle;connectable=0;fillColor=none;top=0;left=0;bottom=0;right=0;editable=1;overflow=hidden;whiteSpace=wrap;html=1;" vertex="1" parent="KnYIEryw6Jq9mCscbxCg-57">
          <mxGeometry width="30" height="30" as="geometry">
            <mxRectangle width="30" height="30" as="alternateBounds" />
          </mxGeometry>
        </mxCell>
        <mxCell id="KnYIEryw6Jq9mCscbxCg-59" value="alamat" style="shape=partialRectangle;connectable=0;fillColor=none;top=0;left=0;bottom=0;right=0;align=left;spacingLeft=6;overflow=hidden;whiteSpace=wrap;html=1;" vertex="1" parent="KnYIEryw6Jq9mCscbxCg-57">
          <mxGeometry x="30" width="150" height="30" as="geometry">
            <mxRectangle width="150" height="30" as="alternateBounds" />
          </mxGeometry>
        </mxCell>
        <mxCell id="KnYIEryw6Jq9mCscbxCg-61" value="id_transaksi" style="ellipse;whiteSpace=wrap;html=1;align=center;fontStyle=4;" vertex="1" parent="1">
          <mxGeometry x="40" y="651" width="100" height="40" as="geometry" />
        </mxCell>
        <mxCell id="KnYIEryw6Jq9mCscbxCg-73" value="" style="endArrow=none;html=1;rounded=0;edgeStyle=orthogonalEdgeStyle;" edge="1" parent="1" source="KnYIEryw6Jq9mCscbxCg-9" target="KnYIEryw6Jq9mCscbxCg-25">
          <mxGeometry relative="1" as="geometry">
            <mxPoint x="1370" y="230" as="sourcePoint" />
            <mxPoint x="1530" y="230" as="targetPoint" />
          </mxGeometry>
        </mxCell>
        <mxCell id="KnYIEryw6Jq9mCscbxCg-74" value="" style="endArrow=none;html=1;rounded=0;exitX=0;exitY=0.5;exitDx=0;exitDy=0;entryX=0;entryY=0.5;entryDx=0;entryDy=0;edgeStyle=orthogonalEdgeStyle;" edge="1" parent="1" source="KnYIEryw6Jq9mCscbxCg-9" target="KnYIEryw6Jq9mCscbxCg-38">
          <mxGeometry relative="1" as="geometry">
            <mxPoint x="1180" y="450" as="sourcePoint" />
            <mxPoint x="1340" y="450" as="targetPoint" />
            <Array as="points">
              <mxPoint x="1050" y="275" />
              <mxPoint x="1050" y="580" />
              <mxPoint x="1115" y="580" />
            </Array>
          </mxGeometry>
        </mxCell>
        <mxCell id="KnYIEryw6Jq9mCscbxCg-75" value="" style="endArrow=none;html=1;rounded=0;exitX=1;exitY=0.5;exitDx=0;exitDy=0;entryX=0;entryY=0.5;entryDx=0;entryDy=0;edgeStyle=orthogonalEdgeStyle;" edge="1" parent="1" source="KnYIEryw6Jq9mCscbxCg-41" target="KnYIEryw6Jq9mCscbxCg-48">
          <mxGeometry relative="1" as="geometry">
            <mxPoint x="1310" y="520" as="sourcePoint" />
            <mxPoint x="1470" y="520" as="targetPoint" />
          </mxGeometry>
        </mxCell>
      </root>
    </mxGraphModel>
  </diagram>
</mxfile>
